<svg width="94" height="88" viewBox="0 0 94 88" fill="none" xmlns="http://www.w3.org/2000/svg">
<path d="M53.8657 81.3644L49.2677 85.7534C47.3209 87.6117 44.1727 87.6117 42.2466 85.7534L1.98359 47.3404C0.0367195 45.482 0.0367195 42.4769 1.98359 40.6383L42.2466 2.20555C44.1934 0.347174 47.3416 0.347174 49.2677 2.20555L53.8657 6.59448C55.8332 8.47262 55.7918 11.537 53.7828 13.3756L28.8256 36.0715H88.3502C91.1048 36.0715 93.3209 38.1869 93.3209 40.8163V47.1427C93.3209 49.7721 91.1048 51.8874 88.3502 51.8874H28.8256L53.7828 74.5833C55.8125 76.4219 55.854 79.4863 53.8657 81.3644Z" fill="white"/>
</svg>
